<svg width="64" height="64" viewBox="0 0 64 64" fill="none" xmlns="http://www.w3.org/2000/svg">
<defs>
  <linearGradient id="g" x1="0" y1="0" x2="1" y2="1">
    <stop offset="0%" stop-color="#ffb347"/>
    <stop offset="100%" stop-color="#ff8c00"/>
  </linearGradient>
</defs>
<g filter="url(#shadow)">
  <path d="M32 4C32 4 19 17 19 30C19 44 32 58 32 58C32 58 45 44 45 30C45 17 32 4 32 4Z" fill="url(#g)" stroke="#fff" stroke-width="1"/>
  <circle cx="32" cy="28" r="6" fill="#1f2235" stroke="#fff" stroke-width="1"/>
  <path d="M16 46C16 46 12 52 12 56C12 57.1046 12.8954 58 14 58H22L16 46Z" fill="#22273f"/>
  <path d="M52 46C52 46 56 52 56 56C56 57.1046 55.1046 58 54 58H46L52 46Z" fill="#22273f"/>
  <g transform="translate(32,58)">
    <path d="M0 0C-6 4 -6 12 0 16C6 12 6 4 0 0Z" fill="rgba(255,140,0,0.8)"/>
    <path d="M0 4C-3 6 -3 10 0 12C3 10 3 6 0 4Z" fill="rgba(255,200,100,0.9)"/>
  </g>
</g>
</svg>